<svg fill="none" height="512" viewBox="0 0 24 24" width="512" xmlns="http://www.w3.org/2000/svg"><g clip-rule="evenodd" fill="rgb(0,0,0)" fill-rule="evenodd"><path d="m5 16c0-1.1046.89543-2 2-2h3c1.1046 0 2 .8954 2 2v3c0 1.1046-.8954 2-2 2h-3c-1.10457 0-2-.8954-2-2zm5 0h-3v3h3z"/><path d="m3 5c0-1.10457.89543-2 2-2h5c1.1046 0 2 .89543 2 2v5c0 1.1046-.8954 2-2 2h-5c-1.10457 0-2-.8954-2-2zm7 0h-5v5h5z"/><path d="m14 16c0-1.1046.8954-2 2-2h3c1.1046 0 2 .8954 2 2v3c0 1.1046-.8954 2-2 2h-3c-1.1046 0-2-.8954-2-2zm5 0h-3v3h3z"/><path d="m14 7c0-1.10457.8954-2 2-2h3c1.1046 0 2 .89543 2 2v3c0 1.1046-.8954 2-2 2h-3c-1.1046 0-2-.8954-2-2zm5 0h-3v3h3z"/></g></svg>