<svg width="24" height="24" viewBox="0 0 24 24" fill="none" xmlns="http://www.w3.org/2000/svg">
<path d="M21.0519 23.3333L16.7852 19.0667C15.9704 19.7185 15.0333 20.2346 13.9741 20.6148C12.9148 20.9951 11.7877 21.1852 10.5926 21.1852C7.6321 21.1852 5.12681 20.1601 3.07674 18.1101C1.02558 16.0589 0 13.5531 0 10.5926C0 7.6321 1.02558 5.12627 3.07674 3.07511C5.12681 1.02504 7.6321 0 10.5926 0C13.5531 0 16.0589 1.02504 18.1101 3.07511C20.1601 5.12627 21.1852 7.6321 21.1852 10.5926C21.1852 11.7877 20.9951 12.9148 20.6148 13.9741C20.2346 15.0333 19.7185 15.9704 19.0667 16.7852L23.3333 21.0519L21.0519 23.3333ZM10.5926 17.9259C12.6296 17.9259 14.3614 17.2132 15.7878 15.7878C17.2132 14.3614 17.9259 12.6296 17.9259 10.5926C17.9259 8.55555 17.2132 6.8238 15.7878 5.39733C14.3614 3.97195 12.6296 3.25926 10.5926 3.25926C8.55555 3.25926 6.8238 3.97195 5.39733 5.39733C3.97195 6.8238 3.25926 8.55555 3.25926 10.5926C3.25926 12.6296 3.97195 14.3614 5.39733 15.7878C6.8238 17.2132 8.55555 17.9259 10.5926 17.9259Z" fill="white"/>
</svg>
