<?xml version="1.0" encoding="UTF-8"?>
<svg xmlns="http://www.w3.org/2000/svg" width="165" height="48" viewBox="0 0 165 48" fill="none">
  <path d="M29.1091 1.14527C29.1705 1.02246 29.2319 0.899658 29.2933 0.776856C29.7845 -0.205559 31.1353 -0.266958 32.3634 0.654056C38.3193 5.13632 44.6436 8.88178 51.3363 11.8904C52.6871 12.5044 53.3011 14.2851 52.5029 16.0043C52.2573 16.5569 51.9503 17.1095 51.7047 17.7235C50.9064 19.3813 49.1258 20.1181 47.8364 19.2585C41.5735 15.1447 35.679 10.4168 30.1529 5.07492C29.0477 3.9697 28.6179 2.18908 29.1091 1.14527Z" fill="url(#paint0_linear_112_4147)"></path>
  <path d="M16.9516 2.8645C17.2586 2.4347 17.5656 2.00488 17.8726 1.51368C18.4867 0.654064 19.7761 0.961076 20.7585 2.2505C29.4774 13.0571 39.8542 21.6532 51.6431 27.6705C53.0554 28.3459 53.3624 30.4335 52.2572 32.2755C51.7045 33.1966 51.1519 34.0562 50.5993 34.9772C49.4327 36.8192 47.3451 37.6174 45.9943 36.6964C34.8193 29.1441 25.1179 19.1357 17.32 7.10116C16.4604 5.68894 16.3376 3.78552 16.9516 2.8645Z" fill="url(#paint1_linear_112_4147)"></path>
  <path opacity="0.75" d="M17.7497 6.54858C17.6883 6.48717 17.6883 6.48717 17.6269 6.42577C17.6269 6.42577 16.7059 5.44336 16.8901 6.24157C16.8901 6.30297 16.9515 6.36437 16.9515 6.42577C16.6445 5.32055 17.6269 6.48717 17.6269 6.48717C17.6883 6.54857 17.6883 6.60997 17.7497 6.60997C24.7494 14.3465 33.7139 20.1182 44.0293 23.311C41.389 21.5918 38.8102 19.7498 36.3542 17.7849C29.4773 15.3903 23.153 11.522 17.7497 6.54858Z" fill="url(#paint2_linear_112_4147)"></path>
  <path d="M3.87326 3.96968C4.85567 2.80307 5.89949 1.82066 6.8205 0.838243C7.55731 0.0400311 8.66253 0.776842 9.39934 2.37327C15.3552 16.0043 23.2145 28.0388 32.7317 38.0472C33.8983 39.2138 33.7755 41.4856 32.3633 43.0207C31.8721 43.5733 31.3809 44.0645 30.9511 44.6171C29.5388 46.2135 27.267 46.4591 26.1004 45.2311C16.2148 35.1614 8.47833 22.6356 3.32065 8.32915C2.64524 6.67133 3.13645 4.8907 3.87326 3.96968Z" fill="url(#paint3_linear_112_4147)"></path>
  <path opacity="0.75" d="M25.6706 29.8809C16.8289 24.3548 9.46077 16.5569 3.99609 7.46954C10.259 20.2409 20.2059 31.2931 32.9159 38.2928C32.8545 38.2314 32.7931 38.17 32.7317 38.1086C30.2757 35.4684 27.9424 32.7053 25.6706 29.8809Z" fill="url(#paint4_linear_112_4147)"></path>
  <path d="M1.66278 21.0391C2.03119 20.7935 2.39959 20.4865 2.76799 20.2409C3.93461 19.3199 5.28543 20.0567 5.83804 21.8373C7.80287 28.6528 10.0747 35.2841 12.6535 41.7312C13.329 43.3891 12.6535 45.7837 10.9957 47.0731C10.8115 47.1959 10.6273 47.3801 10.4431 47.5029C8.78528 48.7309 6.94326 47.5029 6.26785 45.7837C3.87321 39.2138 1.78558 33.1965 0.127758 26.1968C-0.302049 24.232 0.434762 21.9601 1.66278 21.0391Z" fill="url(#paint5_linear_112_4147)"></path>
  <path opacity="0.75" d="M1.96971 26.5038C1.78551 26.2582 1.60131 26.0126 1.41711 25.767C0.864497 25.0916 0.127685 24.2934 0.00488281 24.9074C0.00488281 24.9688 0.00488281 25.0302 0.00488281 25.153C0.127685 24.1706 0.925898 25.2144 1.41711 26.0126C1.53991 26.2582 1.72411 26.5038 1.84691 26.7494V26.8108C4.60995 31.4159 7.987 35.7754 11.7939 39.6436C11.3026 38.3542 10.8114 37.0648 10.3202 35.7754C7.31159 32.9509 4.48715 29.8809 1.96971 26.5038Z" fill="url(#paint6_linear_112_4147)"></path>
  <mask id="mask0_112_4147" style="mask-type:alpha" maskUnits="userSpaceOnUse" x="2" y="8" width="51" height="40">
    <path d="M39.7928 20.3638C38.3192 22.9426 36.5386 25.2758 34.3895 27.4249C38.0736 30.8019 41.9418 33.9334 46.0557 36.6964C47.3451 37.6174 49.4942 36.8192 50.6608 34.9772C51.2134 34.0562 51.766 33.1966 52.3186 32.2756C53.4238 30.4335 53.1168 28.4073 51.7046 27.6705C47.5293 25.5829 43.5997 23.1268 39.7928 20.3638ZM51.7046 17.7235C50.9064 19.3814 49.1258 20.1182 47.8363 19.2586C45.8715 17.9691 43.9681 16.6183 42.1261 15.2061C42.9243 12.9343 43.4769 10.5396 43.7839 8.14499C46.2399 9.55721 48.7574 10.7852 51.3362 11.9518C52.687 12.5659 53.301 14.3465 52.5028 16.0657C52.2572 16.6183 52.0116 17.1709 51.7046 17.7235ZM27.7582 32.4597C29.3547 34.3632 31.0125 36.2666 32.7317 38.0472C33.8983 39.2138 33.7755 41.4857 32.3633 43.0207C31.8721 43.5733 31.3809 44.0645 30.9511 44.6171C29.5389 46.2136 27.267 46.4592 26.1004 45.2311C23.276 42.4067 20.6971 39.3367 18.2411 36.0824C20.3287 35.6526 22.4164 34.9772 24.4426 34.1176C25.6092 33.6878 26.7144 33.0738 27.7582 32.4597ZM10.7502 36.8806C11.3642 38.477 11.9782 40.1349 12.5922 41.7313C13.2676 43.3891 12.5922 45.7838 10.9344 47.0732C10.7502 47.196 10.566 47.3802 10.3818 47.503C8.72396 48.731 6.88193 47.503 6.20652 45.7838C4.9785 42.3453 3.81188 39.0911 2.76807 35.7754C5.3469 36.3894 8.04854 36.8192 10.7502 36.8806Z" fill="url(#paint7_linear_112_4147)"></path>
  </mask>
  <g mask="url(#mask0_112_4147)">
    <path opacity="0.15" d="M39.7928 20.3638C38.3192 22.9426 36.5386 25.2758 34.3895 27.4249C38.0736 30.8019 41.9418 33.9334 46.0557 36.6964C47.3451 37.6174 49.4942 36.8192 50.6608 34.9772C51.2134 34.0562 51.766 33.1966 52.3186 32.2756C53.4238 30.4335 53.1168 28.4073 51.7046 27.6705C47.5293 25.5829 43.5997 23.1268 39.7928 20.3638ZM51.7046 17.7235C50.9064 19.3814 49.1258 20.1182 47.8363 19.2586C45.8715 17.9691 43.9681 16.6183 42.1261 15.2061C42.9243 12.9343 43.4769 10.5396 43.7839 8.14499C46.2399 9.55721 48.7574 10.7852 51.3362 11.9518C52.687 12.5659 53.301 14.3465 52.5028 16.0657C52.2572 16.6183 52.0116 17.1709 51.7046 17.7235ZM27.7582 32.4597C29.3547 34.3632 31.0125 36.2666 32.7317 38.0472C33.8983 39.2138 33.7755 41.4857 32.3633 43.0207C31.8721 43.5733 31.3809 44.0645 30.9511 44.6171C29.5389 46.2136 27.267 46.4592 26.1004 45.2311C23.276 42.4067 20.6971 39.3367 18.2411 36.0824C20.3287 35.6526 22.4164 34.9772 24.4426 34.1176C25.6092 33.6878 26.7144 33.0738 27.7582 32.4597ZM10.7502 36.8806C11.3642 38.477 11.9782 40.1349 12.5922 41.7313C13.2676 43.3891 12.5922 45.7838 10.9344 47.0732C10.7502 47.196 10.566 47.3802 10.3818 47.503C8.72396 48.731 6.88193 47.503 6.20652 45.7838C4.9785 42.3453 3.81188 39.0911 2.76807 35.7754C5.3469 36.3894 8.04854 36.8192 10.7502 36.8806Z" fill="url(#paint8_linear_112_4147)" fill-opacity="0.8"></path>
  </g>
  <path d="M1.29408 21.3461C1.35548 21.2847 1.35547 21.2847 1.41688 21.2233C1.47828 21.1619 1.53968 21.1005 1.60108 21.1005C1.96949 20.8549 2.33789 20.5479 2.70629 20.3023C3.93431 19.3813 5.65354 19.7497 6.75875 21.0391C13.2058 28.837 21.6792 35.4683 31.1963 39.3365C31.5647 39.4593 32.4243 39.7663 32.7927 39.5207C33.2226 39.2137 32.7313 38.1699 31.8717 37.2489C32.1173 37.5559 32.4243 37.8015 32.6699 38.1085C33.6524 39.1523 33.7138 40.9944 32.7313 42.5294C32.6085 42.7136 32.4857 42.8978 32.3015 43.082C31.8103 43.6346 31.3191 44.1258 30.8893 44.6784C29.4771 46.2749 26.8983 46.9503 25.3632 46.1521C16.0917 41.547 8.10958 34.7929 1.96948 26.5652C1.96948 26.5652 1.96948 26.5652 1.96948 26.5038C1.78528 26.2582 1.60108 26.0125 1.47828 25.7669C0.864266 25.0301 0.0660531 24.1091 0.00465216 25.0915C-0.0567488 23.6793 0.495863 22.2057 1.29408 21.3461Z" fill="url(#paint9_linear_112_4147)"></path>
  <path d="M3.87277 3.96961C4.85518 2.80299 5.899 1.82058 6.82001 0.838169C6.82001 0.776768 6.88141 0.77677 6.88141 0.715369L6.94281 0.653964C7.67962 -0.144248 9.15324 0.408362 10.1357 1.75918C19.5914 15.8814 33.6522 25.4599 50.4147 28.4072C50.4147 28.4072 52.6251 28.8984 52.0111 27.8546C53.0549 28.5914 53.3005 30.1878 52.6251 31.7228C52.6251 31.7842 52.5637 31.8456 52.5023 31.907C52.5023 31.907 52.5023 31.9684 52.4409 31.9684C52.3795 32.0912 52.3181 32.1526 52.2567 32.2754C51.7041 33.1964 51.1515 34.0561 50.5989 34.9771C49.4322 36.8191 47.0376 38.1085 45.3184 37.7401C27.5735 34.1789 12.8373 22.3899 3.68856 7.03966C3.38156 6.54845 2.82895 6.67125 3.07455 7.96067C2.76755 6.42565 3.19736 4.82922 3.87277 3.96961Z" fill="url(#paint10_linear_112_4147)"></path>
  <path d="M16.8285 3.10999C16.8285 3.10999 16.8285 3.04859 16.8285 3.10999C16.8899 2.98719 16.8899 2.92578 16.9513 2.92578C17.0127 2.80298 17.1355 2.68018 17.1969 2.55738C17.4425 2.25038 17.6267 1.94337 17.8723 1.57496C18.4863 0.715351 19.8986 0.776754 21.0652 1.75917C29.2929 8.32907 39.2399 12.2587 50.2306 12.9955C50.599 13.0569 52.8094 12.9955 51.2744 12.0131C52.5024 12.5657 53.1165 14.1008 52.6252 15.5744C52.6252 15.6358 52.6253 15.6972 52.5638 15.6972V15.7586C52.5024 15.8814 52.5025 15.9428 52.441 16.0656C52.1954 16.6182 51.8884 17.1708 51.6428 17.7848C51.5814 17.8462 51.5814 17.969 51.52 18.0304C51.52 18.0918 51.4586 18.0918 51.4586 18.1532C51.4586 18.1532 51.4586 18.1532 51.4586 18.2146C50.5376 19.6882 48.6956 20.6706 47.222 20.4864C35.9242 18.9514 25.8545 14.0393 17.7495 6.60984C17.6881 6.54844 17.6881 6.54844 17.6267 6.48704C17.6267 6.48704 16.5829 5.38182 16.9513 6.48704C16.4601 5.19762 16.4601 3.9082 16.8285 3.10999Z" fill="url(#paint11_linear_112_4147)"></path>
  <mask id="mask1_112_4147" style="mask-type:alpha" maskUnits="userSpaceOnUse" x="0" y="0" width="41" height="31">
    <path d="M17.7495 6.54852C23.2756 11.6448 29.7227 15.5744 36.9066 18.0305C38.3802 15.9429 39.5468 13.7324 40.4065 11.3992C33.2839 9.55716 26.7754 6.30291 21.0652 1.75924C19.8371 0.83823 18.4863 0.715426 17.8723 1.57504C17.6267 1.88204 17.4425 2.18905 17.1969 2.55746C17.1355 2.68026 17.0127 2.80306 16.9513 2.92586C16.8899 2.98726 16.8899 3.04866 16.8285 3.11006V3.17147C16.3987 3.96968 16.4601 5.32049 16.9513 6.48711C16.5829 5.3819 17.6267 6.48711 17.6267 6.48711C17.6881 6.42571 17.7495 6.48712 17.7495 6.54852ZM1.29407 21.3461C1.35548 21.2847 1.35547 21.2847 1.41687 21.2233C1.47828 21.1619 1.53968 21.1005 1.60108 21.1005C1.96948 20.8549 2.33789 20.5479 2.70629 20.3023C3.93431 19.3813 5.65354 19.7497 6.75875 21.0391C9.64459 24.4776 12.8988 27.7318 16.4601 30.6177C12.469 31.2317 8.47798 30.9861 4.73252 30.0651C3.75011 28.9598 2.8291 27.7932 1.96948 26.6266C1.96948 26.6266 1.96948 26.6266 1.96948 26.5652C1.78528 26.3196 1.60108 26.074 1.47827 25.8284C0.864266 25.0916 0.0660531 24.1706 0.00465216 25.153C-0.0567488 23.6794 0.495863 22.2057 1.29407 21.3461ZM3.75011 7.10112C3.44311 6.60991 2.8905 6.73272 3.1361 8.02213C2.7063 6.42571 3.1361 4.82928 3.87291 3.96967C4.85533 2.80305 5.89914 1.82064 6.82016 0.83823C6.82016 0.776829 6.88156 0.776831 6.88156 0.71543L6.94296 0.654025C7.67977 -0.144187 9.15339 0.408423 10.1358 1.75924C16.0917 10.6624 23.8896 17.7235 33.0383 22.5128C30.5209 24.846 27.5737 26.8722 24.1966 28.3458C24.0124 28.4072 23.8896 28.4686 23.7054 28.53C15.6005 23.004 8.84639 15.5744 3.75011 7.10112Z" fill="url(#paint12_linear_112_4147)"></path>
  </mask>
  <g mask="url(#mask1_112_4147)">
    <path opacity="0.25" d="M17.7495 6.54852C23.2756 11.6448 29.7227 15.5744 36.9066 18.0305C38.3802 15.9429 39.5468 13.7324 40.4065 11.3992C33.2839 9.55716 26.7754 6.30291 21.0652 1.75924C19.8371 0.83823 18.4863 0.715426 17.8723 1.57504C17.6267 1.88204 17.4425 2.18905 17.1969 2.55746C17.1355 2.68026 17.0127 2.80306 16.9513 2.92586C16.8899 2.98726 16.8899 3.04866 16.8285 3.11006V3.17147C16.3987 3.96968 16.4601 5.32049 16.9513 6.48711C16.5829 5.3819 17.6267 6.48711 17.6267 6.48711C17.6881 6.42571 17.7495 6.48712 17.7495 6.54852ZM1.29407 21.3461C1.35548 21.2847 1.35547 21.2847 1.41687 21.2233C1.47828 21.1619 1.53968 21.1005 1.60108 21.1005C1.96948 20.8549 2.33789 20.5479 2.70629 20.3023C3.93431 19.3813 5.65354 19.7497 6.75875 21.0391C9.64459 24.4776 12.8988 27.7318 16.4601 30.6177C12.469 31.2317 8.47798 30.9861 4.73252 30.0651C3.75011 28.9598 2.8291 27.7932 1.96948 26.6266C1.96948 26.6266 1.96948 26.6266 1.96948 26.5652C1.78528 26.3196 1.60108 26.074 1.47827 25.8284C0.864266 25.0916 0.0660531 24.1706 0.00465216 25.153C-0.0567488 23.6794 0.495863 22.2057 1.29407 21.3461ZM3.75011 7.10112C3.44311 6.60991 2.8905 6.73272 3.1361 8.02213C2.7063 6.42571 3.1361 4.82928 3.87291 3.96967C4.85533 2.80305 5.89914 1.82064 6.82016 0.83823C6.82016 0.776829 6.88156 0.776831 6.88156 0.71543L6.94296 0.654025C7.67977 -0.144187 9.15339 0.408423 10.1358 1.75924C16.0917 10.6624 23.8896 17.7235 33.0383 22.5128C30.5209 24.846 27.5737 26.8722 24.1966 28.3458C24.0124 28.4072 23.8896 28.4686 23.7054 28.53C15.6005 23.004 8.84639 15.5744 3.75011 7.10112Z" fill="url(#paint13_linear_112_4147)"></path>
    <path d="M32.7315 38.1699C32.9157 38.4769 33.1613 38.9067 33.0385 39.2751C32.9771 39.5821 32.6701 39.7049 32.3631 39.7049C31.5035 39.7049 30.7053 39.2751 29.9685 38.9681C29.1702 38.6611 28.372 38.2927 27.5738 37.9243C26.837 37.5559 26.0388 37.1875 25.302 36.7577C24.5038 36.3279 23.767 35.8981 23.0301 35.4683C21.4951 34.5473 20.0215 33.6262 18.6093 32.5824C17.1971 31.5386 15.7848 30.4334 14.4954 29.2668C11.978 26.9949 9.58335 24.6003 7.55712 21.8987C7.37292 21.7145 7.25012 21.5303 7.12732 21.2847C7.06592 21.1618 7.00451 21.1004 6.88171 20.9776L6.82031 20.9162C13.2674 28.7142 21.7407 35.3454 31.2579 39.2137C31.6263 39.3365 32.4859 39.6435 32.8543 39.3979C33.2841 39.0909 32.7929 38.0471 31.9333 37.1261C32.1175 37.3103 32.2403 37.4945 32.4245 37.6787C32.5473 37.8629 32.6701 37.9857 32.7315 38.1699ZM50.415 28.4072C33.7139 25.4599 19.5917 15.8814 10.136 1.75916C10.136 1.82056 10.2588 2.00476 10.2588 2.00476C10.3816 2.18896 10.5044 2.37317 10.6272 2.55737C12.4078 5.38181 14.5568 8.02205 16.7673 10.4781C17.9339 11.7675 19.1619 12.9955 20.4513 14.1621C21.7407 15.3288 23.0916 16.4954 24.5038 17.5392C27.3282 19.6882 30.2755 21.5303 33.4683 23.1267C36.5997 24.7231 39.9154 26.0125 43.2924 26.9335C44.9503 27.4247 46.6081 27.7932 48.3273 28.1002C49.0641 28.223 49.8624 28.3457 50.5992 28.4685C50.9676 28.5299 51.3974 28.5913 51.7658 28.4685C51.95 28.4071 52.0728 28.3457 52.1342 28.1615C52.1342 28.0387 52.0728 27.9159 52.0114 27.8545C52.0114 27.8545 52.0114 27.8546 51.95 27.7932C52.6254 28.8984 50.415 28.4072 50.415 28.4072ZM21.2495 1.88196C21.3723 2.00476 21.4951 2.06616 21.6179 2.18896C21.8635 2.43457 22.1705 2.61877 22.4161 2.86438C23.0301 3.35558 23.6442 3.84678 24.2582 4.27659C25.609 5.25901 26.9598 6.11862 28.4334 6.91683C29.9685 7.77644 31.5035 8.57466 33.0999 9.25007C33.8981 9.61847 34.7577 9.92548 35.6173 10.2325C36.4155 10.5395 37.2752 10.7851 38.1348 11.0921C38.9944 11.3377 39.854 11.5833 40.7136 11.7675C41.5732 11.9517 42.4328 12.1359 43.2924 12.3201C45.0117 12.6271 46.7309 12.8727 48.4501 12.9955C48.8185 12.9955 49.2483 13.0569 49.6167 13.0569C50.0466 13.0569 50.4764 13.1183 50.9062 13.0569C51.2132 12.9955 51.7044 12.9955 51.8886 12.6885C52.0728 12.5043 51.8886 12.2587 51.643 12.1359C51.5202 12.0745 51.4588 12.0131 51.336 11.9517C52.871 12.8727 50.6606 12.9341 50.2922 12.9341C39.3014 12.1973 29.3544 8.26765 21.1267 1.69775C21.0653 1.75915 21.1881 1.82056 21.2495 1.88196Z" fill="white"></path>
    <path opacity="0.5" d="M50.6603 34.9771C50.5375 35.1613 50.4147 35.2841 50.2919 35.4683C50.1691 35.5911 50.1077 35.7139 49.9849 35.8367C49.9235 35.8981 49.9235 35.8981 49.8621 35.9595C48.5727 37.2489 46.7306 37.9857 45.3798 37.7401C27.6349 34.1789 12.8987 22.3899 3.74999 7.03966C3.81139 7.03966 3.81139 7.10107 3.81139 7.16247C3.87279 7.28527 3.99559 7.46947 4.05699 7.59228C4.2412 7.83788 4.364 8.08348 4.5482 8.39049C4.978 9.0659 5.46921 9.7413 5.89902 10.4167C6.88144 11.8289 7.92525 13.1798 8.96907 14.5306C11.1181 17.2936 13.5127 19.8111 16.0916 22.2057C18.6704 24.6003 21.4334 26.8108 24.3807 28.7142C25.8543 29.6966 27.3893 30.6176 28.9244 31.4772C30.4594 32.3368 32.0558 33.0737 33.6522 33.8105C36.9065 35.2841 40.2835 36.3893 43.6606 37.2489C44.029 37.3103 44.3974 37.4331 44.7658 37.4945C45.1342 37.5559 45.5026 37.6787 45.871 37.6787C46.485 37.6787 47.099 37.5559 47.6516 37.3103C48.3271 37.0033 48.9411 36.6349 49.4937 36.1437C49.6779 35.9595 49.9235 35.7753 50.1077 35.5297C50.2305 35.4069 50.2919 35.2841 50.4147 35.1613C50.4761 35.1613 50.5989 35.0385 50.6603 34.9771ZM25.3631 46.0906C26.8981 46.8889 29.477 46.2134 30.8892 44.617C30.8278 44.617 30.5822 44.8626 30.5822 44.924C30.398 45.0468 30.2752 45.1696 30.091 45.2924C29.6612 45.5994 29.17 45.845 28.6788 45.9678C27.6349 46.3362 26.3455 46.4591 25.3631 45.9064C22.2931 44.2486 19.2844 42.468 16.46 40.3804C15.0478 39.3366 13.6355 38.2313 12.2847 37.1261C10.9339 35.9595 9.64448 34.7929 8.35506 33.5035C7.12704 32.2754 5.96042 31.0474 4.7938 29.758C4.24119 29.144 3.68859 28.53 3.19738 27.8546C2.95178 27.5476 2.70617 27.2406 2.46057 26.995C2.33776 26.8722 2.27636 26.7494 2.15356 26.6266C2.15356 26.6266 2.09216 26.5038 2.03076 26.5038C8.17085 34.7929 16.0916 41.4856 25.3631 46.0906ZM17.8108 6.54846C25.8543 14.0394 35.9855 18.89 47.2832 20.4251C48.5113 20.6093 49.9235 19.9339 50.9059 18.9514C50.9673 18.89 51.0287 18.8286 51.0901 18.7058C51.2129 18.5216 51.3357 18.3988 51.4585 18.2146C51.3971 18.2146 51.3971 18.276 51.3971 18.3374C51.3357 18.3988 51.3357 18.4602 51.2743 18.5216C51.2129 18.6444 51.0901 18.7672 50.9673 18.8286C50.7217 19.0742 50.4761 19.3198 50.1691 19.504C49.5551 19.9339 48.8797 20.2409 48.1429 20.3637C47.713 20.4251 47.3446 20.3637 46.9148 20.3023C46.485 20.2409 46.1166 20.1795 45.6868 20.1181C44.8272 19.9953 44.029 19.8111 43.2308 19.6268C40.0993 18.9514 37.0293 17.969 34.082 16.741C31.0734 15.513 28.1262 13.978 25.3631 12.2587C24.6263 11.7675 23.9509 11.3377 23.2141 10.8465C22.5387 10.3553 21.8633 9.86411 21.1264 9.3729C20.451 8.88169 19.7756 8.32909 19.1616 7.77648C18.8546 7.53088 18.609 7.28527 18.302 7.03966C18.1792 6.91686 18.0564 6.85546 17.9336 6.73266C17.8722 6.60986 17.8108 6.54846 17.8108 6.54846Z" fill="#1D1D1B"></path>
  </g>
  <path d="M72.8874 12.3817H73.6856V11.8905C73.6856 9.8643 72.519 9.18888 70.984 9.18888C68.9577 9.18888 67.2999 10.4169 67.2999 10.4169L66.3175 8.69768C66.3175 8.69768 68.1595 7.16266 71.1682 7.16266C74.4224 7.16266 76.1416 8.88188 76.1416 12.0747V17.785C76.1416 18.1534 76.3258 18.3376 76.6943 18.3376H77.9837V20.241H75.4048C74.2382 20.241 73.8084 19.6884 73.8084 18.8288V18.6446C73.8084 18.1534 73.9312 17.785 73.9312 17.785H73.8698C73.8698 17.785 72.7646 20.4867 69.6332 20.4867C67.4841 20.4867 65.3965 19.2586 65.3965 16.6184C65.4579 12.6887 70.7998 12.3817 72.8874 12.3817ZM70.2472 18.6446C72.3962 18.6446 73.747 16.4342 73.747 14.5308V13.9782H73.133C71.9664 13.9782 67.9753 14.0396 67.9753 16.4956C67.9139 17.6008 68.7735 18.6446 70.2472 18.6446Z" fill="#3C3C3B"></path>
  <path d="M84.8603 7.16263C87.7461 7.16263 88.79 9.31166 88.79 9.31166H88.8514C88.8514 9.31166 88.79 8.88185 88.79 8.32924V4.27677H86.6409V2.37335H91.1846V17.7236C91.1846 18.092 91.3688 18.2762 91.7372 18.2762H93.0266V20.1796H90.4478C89.3426 20.1796 88.8514 19.627 88.8514 18.7674V18.5832C88.8514 18.1534 88.9128 17.9078 88.9128 17.9078H88.8514C88.8514 17.9078 87.8076 20.4866 84.5533 20.4866C81.1148 20.4866 78.9658 17.785 78.9658 13.7939C79.0886 9.80286 81.4219 7.16263 84.8603 7.16263ZM85.1673 18.399C87.0707 18.399 88.8514 17.0482 88.8514 13.8553C88.8514 11.5221 87.6848 9.31166 85.2287 9.31166C83.2025 9.31166 81.5447 10.9695 81.5447 13.8553C81.5447 16.6184 83.0797 18.399 85.1673 18.399Z" fill="#3C3C3B"></path>
  <path d="M101.561 12.3817H102.359V11.8905C102.359 9.8643 101.193 9.18888 99.6578 9.18888C97.6316 9.18888 95.9737 10.4169 95.9737 10.4169L94.9913 8.69768C94.9913 8.69768 96.8334 7.16266 99.842 7.16266C103.096 7.16266 104.815 8.88188 104.815 12.0747V17.785C104.815 18.1534 105 18.3376 105.368 18.3376H106.658V20.241H104.079C102.912 20.241 102.482 19.6884 102.482 18.8288V18.6446C102.482 18.1534 102.605 17.785 102.605 17.785H102.544C102.544 17.785 101.438 20.4867 98.307 20.4867C96.1579 20.4867 94.0703 19.2586 94.0703 16.6184C94.0703 12.6887 99.4122 12.3817 101.561 12.3817ZM98.8596 18.6446C101.009 18.6446 102.359 16.4342 102.359 14.5308V13.9782H101.745C100.579 13.9782 96.5878 14.0396 96.5878 16.4956C96.5878 17.6008 97.386 18.6446 98.8596 18.6446Z" fill="#3C3C3B"></path>
  <path d="M107.824 18.3376H109.789V9.86427C109.789 9.49586 109.605 9.31166 109.237 9.31166H107.702V7.40823H110.587C111.693 7.40823 112.184 7.89944 112.184 8.82045V9.49586C112.184 9.92566 112.123 10.2327 112.123 10.2327H112.184C112.798 8.69765 114.64 7.10123 116.728 7.10123C118.754 7.10123 120.043 8.02224 120.473 10.1099H120.534C121.271 8.51344 122.99 7.10123 125.078 7.10123C127.903 7.10123 129.253 8.75905 129.253 12.0133V18.2762H131.28V20.1796H126.797V12.5045C126.797 10.7239 126.49 9.31166 124.526 9.31166C122.131 9.31166 120.78 11.7677 120.78 14.2851V18.2762H122.745V20.1796H118.324V12.5045C118.324 10.8467 118.078 9.31166 116.114 9.31166C113.719 9.31166 112.245 11.8905 112.245 14.4079V18.2762H114.272V20.1796H107.824V18.3376Z" fill="#3C3C3B"></path>
  <path d="M132.262 16.1272H134.411V16.9868C134.411 18.092 135.946 18.5832 137.358 18.5832C138.77 18.5832 139.937 18.0306 139.937 16.9254C139.937 15.636 138.525 15.2062 136.744 14.5922C134.841 13.8554 132.753 13.0571 132.753 10.7239C132.753 8.20647 135.27 7.16266 137.481 7.16266C139.261 7.16266 141.902 7.89947 141.902 9.74149V11.2765H139.753V10.4169C139.753 9.61869 138.77 9.12749 137.481 9.12749C136.253 9.12749 135.209 9.61869 135.209 10.6625C135.209 11.8905 136.621 12.3817 138.156 12.9343C140.121 13.6097 142.393 14.408 142.393 16.8026C142.393 19.1972 140.182 20.548 137.297 20.548C134.963 20.548 132.323 19.5042 132.323 17.478V16.1272H132.262Z" fill="#3C3C3B"></path>
  <path d="M64.9665 32.337H65.7647V31.8457C65.7647 29.8195 64.5981 29.1441 63.0631 29.1441C61.0368 29.1441 59.379 30.3721 59.379 30.3721L58.3966 28.6529C58.3966 28.6529 60.2386 27.1179 63.2473 27.1179C66.5015 27.1179 68.2207 28.8371 68.2207 32.03V37.7402C68.2207 38.1086 68.4049 38.2928 68.7733 38.2928H70.0628V40.1963H67.4839C66.3173 40.1963 65.8875 39.6437 65.8875 38.7841V38.5999C65.8875 38.1086 66.0103 37.7402 66.0103 37.7402H65.9489C65.9489 37.7402 64.8437 40.4419 61.7122 40.4419C59.5632 40.4419 57.4756 39.2139 57.4756 36.5736C57.537 32.644 62.8789 32.337 64.9665 32.337ZM62.3263 38.5999C64.4753 38.5999 65.8261 36.3894 65.8261 34.486V33.9334H65.2121C64.0455 33.9334 60.0544 33.9948 60.0544 36.4508C59.993 37.556 60.8526 38.5999 62.3263 38.5999Z" fill="#3C3C3B"></path>
  <path d="M77.8605 27.1179C79.764 27.1179 82.834 27.8547 82.834 30.0037V31.6001H80.685V30.7405C80.685 29.7581 79.0886 29.2669 77.9219 29.2669C75.3431 29.2669 73.5625 31.1089 73.5625 33.8106C73.5625 36.6964 75.5887 38.4157 78.0447 38.4157C80.1938 38.4157 81.6674 37.1262 82.1586 36.7578L83.0796 38.5385C82.527 39.0911 80.685 40.5033 77.9833 40.5033C74.2993 40.5033 71.1064 37.9244 71.1064 33.8106C71.1064 29.9423 74.0537 27.1179 77.8605 27.1179Z" fill="#3C3C3B"></path>
  <path d="M91.676 32.337H92.4742V31.8457C92.4742 29.8195 91.3076 29.1441 89.7725 29.1441C87.7463 29.1441 86.0885 30.3721 86.0885 30.3721L85.1061 28.6529C85.1061 28.6529 86.9481 27.1179 89.9568 27.1179C93.211 27.1179 94.9302 28.8371 94.9302 32.03V37.7402C94.9302 38.1086 95.1144 38.2928 95.4828 38.2928H96.7722V40.1963H94.1934C93.0268 40.1963 92.597 39.6437 92.597 38.7841V38.5999C92.597 38.1086 92.7198 37.7402 92.7198 37.7402H92.6584C92.6584 37.7402 91.5532 40.4419 88.4217 40.4419C86.2727 40.4419 84.1851 39.2139 84.1851 36.5736C84.2465 32.644 89.5883 32.337 91.676 32.337ZM89.0357 38.5999C91.1848 38.5999 92.5356 36.3894 92.5356 34.486V33.9334H91.9216C90.755 33.9334 86.7639 33.9948 86.7639 36.4508C86.7025 37.556 87.5621 38.5999 89.0357 38.5999Z" fill="#3C3C3B"></path>
  <path d="M103.649 27.1179C106.535 27.1179 107.579 29.2669 107.579 29.2669H107.64C107.64 29.2669 107.579 28.8371 107.579 28.2845V24.2321H105.43V22.3286H109.973V37.6789C109.973 38.0473 110.157 38.2315 110.526 38.2315H111.815V40.1349H109.236C108.131 40.1349 107.64 39.5823 107.64 38.7227V38.5385C107.64 38.1087 107.701 37.8631 107.701 37.8631H107.64C107.64 37.8631 106.596 40.4419 103.342 40.4419C99.9034 40.4419 97.7544 37.7403 97.7544 33.7492C97.8772 29.7581 100.21 27.1179 103.649 27.1179ZM103.956 38.3543C105.859 38.3543 107.64 37.0035 107.64 33.8106C107.64 31.4774 106.473 29.2669 104.017 29.2669C101.991 29.2669 100.333 30.9248 100.333 33.8106C100.333 36.5737 101.807 38.3543 103.956 38.3543Z" fill="#3C3C3B"></path>
  <path d="M119.491 27.1179C123.113 27.1179 125.017 29.8195 125.017 33.0738C125.017 33.3808 124.955 33.9948 124.955 33.9948H115.622C115.745 36.8192 117.771 38.3542 120.043 38.3542C122.254 38.3542 123.85 36.942 123.85 36.942L124.833 38.7227C124.833 38.7227 122.929 40.5033 119.859 40.5033C115.868 40.5033 113.105 37.6174 113.105 33.8106C113.044 29.7581 115.807 27.1179 119.491 27.1179ZM122.438 32.4598C122.377 30.1879 121.026 29.0213 119.368 29.0213C117.526 29.0213 115.991 30.3107 115.622 32.4598H122.438Z" fill="#3C3C3B"></path>
  <path d="M126.613 38.2929H128.578V29.8196C128.578 29.4512 128.394 29.267 128.025 29.267H126.49V27.3636H129.376C130.481 27.3636 130.972 27.8548 130.972 28.7758V29.4512C130.972 29.881 130.911 30.188 130.911 30.188H130.972C131.587 28.653 133.429 27.0565 135.516 27.0565C137.542 27.0565 138.832 27.9776 139.262 30.0652H139.323C140.06 28.4688 141.779 27.0565 143.867 27.0565C146.691 27.0565 148.042 28.7144 148.042 31.9686V38.2315H150.068V40.1349H145.586V32.4598C145.586 30.6792 145.279 29.267 143.314 29.267C140.919 29.267 139.569 31.723 139.569 34.2405V38.2315H141.533V40.1349H137.113V32.4598C137.113 30.802 136.867 29.267 134.902 29.267C132.508 29.267 131.034 31.8458 131.034 34.3633V38.2315H133.06V40.1349H126.613V38.2929Z" fill="#3C3C3B"></path>
  <path d="M153.077 43.4506C154.182 43.4506 154.98 42.7137 155.41 41.6699L155.962 40.3805L151.48 29.267H149.884V27.3635H155.717V29.267H153.998L156.822 36.8807C157.006 37.4333 157.068 37.9859 157.068 37.9859H157.129C157.129 37.9859 157.252 37.4333 157.436 36.8807L160.261 29.267H158.603V27.3635H164.252V29.267H162.655L157.62 42.1611C156.761 44.3102 155.103 45.4154 153.138 45.4154C151.48 45.4154 150.375 44.6172 150.375 44.6172L151.235 42.7752C151.296 42.8366 152.033 43.4506 153.077 43.4506Z" fill="#3C3C3B"></path>
  <defs>
    <linearGradient id="paint0_linear_112_4147" x1="22.4427" y1="6.43846e-08" x2="54.6418" y2="25.5256" gradientUnits="userSpaceOnUse">
      <stop stop-color="#E10613"></stop>
      <stop offset="0.6606" stop-color="#F19000"></stop>
      <stop offset="1" stop-color="#FFD600"></stop>
    </linearGradient>
    <linearGradient id="paint1_linear_112_4147" x1="9.72569" y1="1.02899" x2="59.4746" y2="37.4806" gradientUnits="userSpaceOnUse">
      <stop offset="0.022" stop-color="#86A228"></stop>
      <stop offset="0.2742" stop-color="#628C29"></stop>
      <stop offset="0.5902" stop-color="#3C752B"></stop>
      <stop offset="0.8433" stop-color="#24662C"></stop>
      <stop offset="1" stop-color="#1B612C"></stop>
    </linearGradient>
    <linearGradient id="paint2_linear_112_4147" x1="42.254" y1="23.311" x2="29.29" y2="0.00540505" gradientUnits="userSpaceOnUse">
      <stop offset="0.022" stop-color="#86A228"></stop>
      <stop offset="0.2742" stop-color="#628C29"></stop>
      <stop offset="0.5902" stop-color="#3C752B"></stop>
      <stop offset="0.8433" stop-color="#24662C"></stop>
      <stop offset="1" stop-color="#1B612C"></stop>
    </linearGradient>
    <linearGradient id="paint3_linear_112_4147" x1="-7.13801" y1="0.513916" x2="52.3359" y2="24.4901" gradientUnits="userSpaceOnUse">
      <stop stop-color="#446BB0"></stop>
      <stop offset="0.1053" stop-color="#4980C0"></stop>
      <stop offset="0.2495" stop-color="#4E97D1"></stop>
      <stop offset="0.3407" stop-color="#509FD7"></stop>
      <stop offset="0.751" stop-color="#2E6AAA"></stop>
      <stop offset="1" stop-color="#1C4E93"></stop>
    </linearGradient>
    <linearGradient id="paint4_linear_112_4147" x1="18.456" y1="38.2928" x2="18.456" y2="7.46954" gradientUnits="userSpaceOnUse">
      <stop stop-color="#446BB0"></stop>
      <stop offset="0.1053" stop-color="#4980C0"></stop>
      <stop offset="0.2495" stop-color="#4E97D1"></stop>
      <stop offset="0.3407" stop-color="#509FD7"></stop>
      <stop offset="0.751" stop-color="#2D6AAF"></stop>
      <stop offset="1" stop-color="#1B4E9B"></stop>
    </linearGradient>
    <linearGradient id="paint5_linear_112_4147" x1="6.43419" y1="47.4461" x2="6.43419" y2="21.0103" gradientUnits="userSpaceOnUse">
      <stop stop-color="#D10D52"></stop>
      <stop offset="1" stop-color="#695EA4"></stop>
    </linearGradient>
    <linearGradient id="paint6_linear_112_4147" x1="5.89937" y1="39.6436" x2="5.89937" y2="24.6877" gradientUnits="userSpaceOnUse">
      <stop stop-color="#D10D52"></stop>
      <stop offset="1" stop-color="#695EA4"></stop>
    </linearGradient>
    <linearGradient id="paint7_linear_112_4147" x1="43.7209" y1="41.6221" x2="29.4686" y2="29.6628" gradientUnits="userSpaceOnUse">
      <stop stop-color="white"></stop>
      <stop offset="1" stop-color="#404040"></stop>
    </linearGradient>
    <linearGradient id="paint8_linear_112_4147" x1="43.7209" y1="41.6221" x2="29.4686" y2="29.6628" gradientUnits="userSpaceOnUse">
      <stop stop-color="#1D1D1B"></stop>
      <stop offset="1" stop-color="#1D1D1B"></stop>
    </linearGradient>
    <linearGradient id="paint9_linear_112_4147" x1="-7.15824" y1="19.7906" x2="33.0698" y2="55.0705" gradientUnits="userSpaceOnUse">
      <stop stop-color="#8562A5"></stop>
      <stop offset="0.3956" stop-color="#695EA4"></stop>
      <stop offset="0.5627" stop-color="#675CA1"></stop>
      <stop offset="0.6815" stop-color="#5F5598"></stop>
      <stop offset="0.7852" stop-color="#534A88"></stop>
      <stop offset="0.8802" stop-color="#413972"></stop>
      <stop offset="0.9687" stop-color="#2A2556"></stop>
      <stop offset="1" stop-color="#201C4A"></stop>
    </linearGradient>
    <linearGradient id="paint10_linear_112_4147" x1="60.0055" y1="37.8031" x2="10.5552" y2="-13.7145" gradientUnits="userSpaceOnUse">
      <stop stop-color="#006170"></stop>
      <stop offset="0.2056" stop-color="#248D95"></stop>
      <stop offset="0.3901" stop-color="#47B8BA"></stop>
      <stop offset="1" stop-color="#233771"></stop>
    </linearGradient>
    <linearGradient id="paint11_linear_112_4147" x1="13.0924" y1="20.5086" x2="34.596" y2="-12.9538" gradientUnits="userSpaceOnUse">
      <stop stop-color="#68B22E"></stop>
      <stop offset="0.1561" stop-color="#80B727"></stop>
      <stop offset="0.7357" stop-color="#D4C70F"></stop>
      <stop offset="1" stop-color="#F5CD05"></stop>
    </linearGradient>
    <linearGradient id="paint12_linear_112_4147" x1="24.3876" y1="27.6215" x2="11.9965" y2="-0.208843" gradientUnits="userSpaceOnUse">
      <stop stop-color="white"></stop>
      <stop offset="1"></stop>
    </linearGradient>
    <linearGradient id="paint13_linear_112_4147" x1="24.3876" y1="27.6215" x2="11.9965" y2="-0.208843" gradientUnits="userSpaceOnUse">
      <stop stop-color="white"></stop>
      <stop offset="1" stop-color="white"></stop>
    </linearGradient>
  </defs>
</svg>
