<?xml version="1.0" encoding="UTF-8"?>
<svg xmlns="http://www.w3.org/2000/svg" width="11" height="11" viewBox="0 0 11 11" fill="none">
  <path d="M6.6092 8.79443H2.12029C1.67384 8.79443 1.24568 8.9393 0.92999 9.19716C0.614302 9.45503 0.436951 9.80477 0.436951 10.1694V10.6278H8.29255V10.1694C8.29255 9.40998 7.53925 8.79443 6.6092 8.79443Z" fill="#292F33"></path>
  <path d="M1.58131 10.0184C1.65173 10.0184 1.69381 10.6278 1.69381 10.6278H1.4256C1.4256 10.6278 1.47975 10.0184 1.58131 10.0184ZM2.42298 10.0184C2.4934 10.0184 2.53548 10.6278 2.53548 10.6278H2.26699C2.26727 10.6278 2.32142 10.0184 2.42298 10.0184ZM6.30757 10.0184C6.23715 10.0184 6.19507 10.6278 6.19507 10.6278H6.46328C6.463 10.6278 6.40885 10.0184 6.30757 10.0184ZM7.14924 10.0184C7.07882 10.0184 7.03674 10.6278 7.03674 10.6278H7.30495C7.30467 10.6278 7.25052 10.0184 7.14924 10.0184Z" fill="#66757F"></path>
  <path d="M2.78851 8.79443C2.78851 8.79443 2.85585 8.98648 3.00454 9.24612C3.23656 9.65083 3.66834 10.221 4.36524 10.493C5.06243 10.221 5.4942 9.65083 5.72594 9.24612C5.87464 8.98648 5.94197 8.79443 5.94197 8.79443H2.78851Z" fill="#77B255"></path>
  <path d="M4.36524 9.7111C5.01866 9.7111 5.45437 9.47735 5.72594 9.24612C5.87464 8.98648 5.94197 8.79443 5.94197 8.79443H2.78851C2.78851 8.79443 2.85585 8.98648 3.00454 9.24612C3.27612 9.47735 3.71183 9.7111 4.36524 9.7111Z" fill="#5C913B"></path>
  <path d="M3.1406 8.81873C3.1406 9.02361 3.80271 9.27546 4.36383 9.27546C4.92494 9.27546 5.58678 9.02361 5.58678 8.81896V7.94423H3.14032V8.81873H3.1406Z" fill="#FFDC5D"></path>
  <path d="M3.13764 8.32987C3.4788 8.64475 3.90188 8.73 4.36199 8.73C4.82182 8.73 5.24462 8.64452 5.58606 8.32987V7.52985H3.13736V8.32987H3.13764Z" fill="#F9CA55"></path>
  <path d="M2.52462 6.02988C2.52462 6.36171 2.31869 6.63076 2.06478 6.63076C1.81088 6.63076 1.60495 6.36171 1.60495 6.02988C1.60495 5.69804 1.81088 5.42877 2.06478 5.42877C2.31869 5.42854 2.52462 5.69781 2.52462 6.02988ZM7.12266 6.02988C7.12266 6.36171 6.91702 6.63076 6.66283 6.63076C6.40893 6.63076 6.203 6.36171 6.203 6.02988C6.203 5.69804 6.40865 5.42877 6.66283 5.42877C6.91702 5.42854 7.12266 5.69781 7.12266 6.02988Z" fill="#FFDC5D"></path>
  <path d="M1.9736 6.26415C1.9736 4.98334 3.04421 3.94475 4.36479 3.94475C5.68537 3.94475 6.7557 4.98334 6.7557 6.26415C6.7557 7.54497 5.68537 8.58356 4.36479 8.58356C3.04421 8.58356 1.9736 7.5452 1.9736 6.26415Z" fill="#FFDC5D"></path>
  <path d="M4.36281 7.83229C3.59016 7.83229 3.3528 7.67073 3.31325 7.63796C3.2779 7.61055 3.25734 7.57279 3.25607 7.53299C3.25481 7.49319 3.27295 7.45462 3.30651 7.42575C3.34007 7.39688 3.38629 7.38008 3.43502 7.37905C3.48374 7.37802 3.53096 7.39284 3.56631 7.42025C3.5809 7.42873 3.76859 7.53185 4.36281 7.53185C4.98004 7.53185 5.15847 7.42071 5.16015 7.41956C5.1771 7.40583 5.19725 7.39501 5.21939 7.38774C5.24154 7.38046 5.26525 7.37688 5.28911 7.3772C5.31298 7.37752 5.33653 7.38174 5.35837 7.3896C5.38021 7.39747 5.39991 7.40882 5.4163 7.423C5.45029 7.45209 5.46893 7.49092 5.46819 7.53113C5.46746 7.57134 5.44741 7.60971 5.41237 7.63796C5.37281 7.67073 5.13546 7.83229 4.36281 7.83229ZM4.57323 6.9037H4.15239C4.03652 6.9037 3.94197 6.82647 3.94197 6.73183C3.94197 6.63718 4.03652 6.55995 4.15239 6.55995H4.57323C4.6891 6.55995 4.78365 6.63718 4.78365 6.73183C4.78365 6.82647 4.6891 6.9037 4.57323 6.9037Z" fill="#C1694F"></path>
  <path d="M3.24137 6.27381C3.08707 6.27381 2.96082 6.17068 2.96082 6.04464V5.81547C2.96082 5.68943 3.08707 5.5863 3.24137 5.5863C3.39568 5.5863 3.52193 5.68943 3.52193 5.81547V6.04464C3.52193 6.17068 3.39568 6.27381 3.24137 6.27381ZM5.48583 6.27381C5.33152 6.27381 5.20527 6.17068 5.20527 6.04464V5.81547C5.20527 5.68943 5.33152 5.5863 5.48583 5.5863C5.64013 5.5863 5.76639 5.68943 5.76639 5.81547V6.04464C5.76639 6.17068 5.64013 6.27381 5.48583 6.27381Z" fill="#662113"></path>
  <path d="M4.36493 3.06529C5.94952 3.06529 6.93988 4.13046 6.93988 4.92636C6.93988 5.72226 6.66746 6.06487 6.54374 5.72226C6.32883 5.1278 6.04827 5.1278 6.04827 5.1278C6.04827 5.1278 4.95915 5.48026 4.563 5.16172C4.563 5.16172 5.15722 6.11689 3.96878 5.16172C3.96878 5.16172 4.16686 5.79857 2.97842 5.00268C2.97842 5.00268 2.3842 4.92636 2.18612 5.72226C2.13114 5.94318 1.78998 5.72226 1.78998 4.92636C1.78998 4.13046 2.58227 3.06529 4.36493 3.06529Z" fill="#FFAC33"></path>
  <path d="M8.32093 3.18227L4.39313 2.49477C4.37381 2.49133 4.35381 2.49133 4.33449 2.49477L0.406695 3.18227C0.376064 3.18761 0.348503 3.20118 0.328404 3.2208C0.308305 3.24042 0.296824 3.26498 0.295792 3.29055C0.294759 3.31612 0.304233 3.34124 0.322705 3.3619C0.341177 3.38256 0.367584 3.39758 0.397718 3.40456L1.78479 3.72837C1.73092 3.86473 1.69866 4.02217 1.69866 4.211C1.69866 4.7358 2.62029 5.01309 4.36395 5.01309C6.10761 5.01309 7.02924 4.7358 7.02924 4.211C7.02924 4.02217 6.99698 3.86473 6.94311 3.72837L8.33047 3.40456C8.36059 3.39753 8.38697 3.38247 8.4054 3.36178C8.42383 3.34108 8.43324 3.31594 8.43214 3.29037C8.43105 3.26479 8.4195 3.24025 8.39934 3.22066C8.37919 3.20107 8.35158 3.18755 8.32093 3.18227Z" fill="#292F33"></path>
  <path d="M8.42629 3.26295C8.41598 3.23378 8.39196 3.20912 8.35948 3.19436C8.32701 3.17959 8.2887 3.17591 8.25291 3.18412L4.36383 4.09185L0.474467 3.18412C0.456745 3.17999 0.438203 3.17876 0.419899 3.18049C0.401595 3.18222 0.383887 3.18688 0.367787 3.1942C0.335271 3.20899 0.311277 3.23372 0.301083 3.26295C0.290889 3.29219 0.29533 3.32353 0.313429 3.35009C0.331529 3.37665 0.361804 3.39625 0.397594 3.40458L4.32539 4.32125C4.35041 4.32717 4.37697 4.32717 4.40198 4.32125L8.32978 3.40458C8.34755 3.40051 8.36415 3.39361 8.37863 3.38428C8.39312 3.37494 8.40519 3.36336 8.41416 3.35019C8.42314 3.33702 8.42883 3.32253 8.43091 3.30756C8.43299 3.29259 8.43142 3.27743 8.42629 3.26295Z" fill="#66757F"></path>
  <path d="M4.35204 3.18025L0.985357 3.40942C0.978062 3.40988 0.856862 3.42248 0.856862 3.52354V4.92032C0.772975 4.96294 0.716583 5.0899 0.716583 5.47147C0.716583 6.04095 0.842273 6.50272 0.99714 6.50272C1.15201 6.50272 1.2777 6.04095 1.2777 5.47147C1.2777 5.0899 1.22131 4.96294 1.13742 4.92032V3.62896L4.37561 3.4085C4.41183 3.40509 4.44501 3.3903 4.46811 3.36725C4.49121 3.34421 4.50241 3.31472 4.49935 3.28504C4.49628 3.25536 4.47919 3.22782 4.45169 3.20826C4.4242 3.1887 4.38845 3.17865 4.35204 3.18025Z" fill="#FFCC4D"></path>
</svg>
