<?xml version="1.0" encoding="UTF-8"?>
<svg xmlns="http://www.w3.org/2000/svg" width="8" height="8" viewBox="0 0 8 8" fill="none">
  <path d="M0.598473 3.62123C0.598473 1.72018 2.13979 0.178857 4.04084 0.178857C5.94189 0.178857 7.48321 1.72018 7.48322 3.62123C7.48322 5.52228 5.94189 7.0636 4.04084 7.0636C2.13979 7.0636 0.598473 5.52228 0.598473 3.62123Z" fill="#A4AEEB"></path>
  <path d="M1.45908 3.62124C1.45908 2.93651 1.73109 2.27982 2.21526 1.79565C2.69944 1.31147 3.35613 1.03946 4.04086 1.03946C4.72559 1.03946 5.38227 1.31147 5.86645 1.79565C6.35063 2.27982 6.62263 2.93651 6.62263 3.62124C6.62263 4.30597 6.35063 4.96266 5.86645 5.44683C5.38227 5.93101 4.72559 6.20302 4.04086 6.20302C3.35613 6.20302 2.69944 5.93101 2.21526 5.44683C1.73109 4.96266 1.45908 4.30597 1.45908 3.62124Z" fill="#5235A6"></path>
  <path d="M4.98927 5.43565C5.05516 5.39761 5.10324 5.33495 5.12293 5.26146C5.14262 5.18797 5.13231 5.10967 5.09427 5.04379L4.23368 3.5532C4.20356 3.50102 4.1593 3.46166 4.10824 3.43747L4.39763 2.06434C4.40539 2.02745 4.40581 1.9894 4.39886 1.95235C4.39191 1.9153 4.37774 1.87998 4.35714 1.84841C4.33655 1.81684 4.30993 1.78963 4.27882 1.76835C4.24771 1.74706 4.21272 1.73211 4.17583 1.72435C4.13894 1.71659 4.10089 1.71617 4.06384 1.72312C4.02679 1.73006 3.99147 1.74424 3.9599 1.76484C3.92833 1.78543 3.90112 1.81205 3.87983 1.84315C3.85855 1.87426 3.8436 1.90926 3.83584 1.94615L3.54057 3.34984C3.52728 3.41315 3.53577 3.47909 3.56467 3.53697C3.59358 3.59484 3.64119 3.64125 3.69979 3.66865C3.69384 3.72826 3.70679 3.78822 3.73682 3.84006L4.59741 5.33065C4.63545 5.39654 4.69811 5.44462 4.77159 5.46431C4.84508 5.484 4.92338 5.47369 4.98927 5.43565Z" fill="white"></path>
  <path d="M3.34458 3.73527C3.2685 3.60349 3.24788 3.44689 3.28726 3.29991C3.32664 3.15293 3.4228 3.02762 3.55458 2.95154C3.68635 2.87546 3.84295 2.85484 3.98993 2.89422C4.13691 2.93361 4.26222 3.02976 4.3383 3.16154C4.41438 3.29331 4.435 3.44992 4.39562 3.59689C4.35624 3.74387 4.26008 3.86918 4.1283 3.94527C3.99653 4.02135 3.83993 4.04196 3.69295 4.00258C3.54597 3.9632 3.42066 3.86704 3.34458 3.73527Z" fill="#FCD53F"></path>
</svg>
