<?xml version="1.0" encoding="UTF-8"?>
<svg xmlns="http://www.w3.org/2000/svg" width="21" height="22" viewBox="0 0 21 22" fill="none">
  <path d="M2.5 21.5H13C13.4973 21.5 13.9742 21.3025 14.3258 20.9508C14.6774 20.5992 14.875 20.1223 14.875 19.625V2.375C14.875 1.87772 14.6774 1.40081 14.3258 1.04917C13.9742 0.697544 13.4973 0.5 13 0.5H2.5C2.00272 0.5 1.5258 0.697544 1.17417 1.04917C0.822544 1.40081 0.625 1.87772 0.625 2.375V19.625C0.625 20.1223 0.822544 20.5992 1.17417 20.9508C1.5258 21.3025 2.00272 21.5 2.5 21.5ZM9.24999 19.25C9.24999 19.3495 9.21049 19.4448 9.14016 19.5152C9.06983 19.5855 8.97445 19.625 8.87499 19.625H6.625C6.52554 19.625 6.43016 19.5855 6.35983 19.5152C6.28951 19.4448 6.25 19.3495 6.25 19.25V17.75C6.25 17.6505 6.28951 17.5552 6.35983 17.4848C6.43016 17.4145 6.52554 17.375 6.625 17.375H8.87499C8.97445 17.375 9.06983 17.4145 9.14016 17.4848C9.21049 17.5552 9.24999 17.6505 9.24999 17.75V19.25ZM9.24999 16.25C9.24999 16.3495 9.21049 16.4448 9.14016 16.5152C9.06983 16.5855 8.97445 16.625 8.87499 16.625H6.625C6.52554 16.625 6.43016 16.5855 6.35983 16.5152C6.28951 16.4448 6.25 16.3495 6.25 16.25V14.75C6.25 14.6505 6.28951 14.5552 6.35983 14.4848C6.43016 14.4145 6.52554 14.375 6.625 14.375H8.87499C8.97445 14.375 9.06983 14.4145 9.14016 14.4848C9.21049 14.5552 9.24999 14.6505 9.24999 14.75V16.25ZM9.24999 13.25C9.24999 13.3495 9.21049 13.4448 9.14016 13.5152C9.06983 13.5855 8.97445 13.625 8.87499 13.625H6.625C6.52554 13.625 6.43016 13.5855 6.35983 13.5152C6.28951 13.4448 6.25 13.3495 6.25 13.25V11.75C6.25 11.6505 6.28951 11.5552 6.35983 11.4848C6.43016 11.4145 6.52554 11.375 6.625 11.375H8.87499C8.97445 11.375 9.06983 11.4145 9.14016 11.4848C9.21049 11.5552 9.24999 11.6505 9.24999 11.75V13.25ZM9.24999 10.25C9.24999 10.3495 9.21049 10.4448 9.14016 10.5152C9.06983 10.5855 8.97445 10.625 8.87499 10.625H6.625C6.52554 10.625 6.43016 10.5855 6.35983 10.5152C6.28951 10.4448 6.25 10.3495 6.25 10.25V8.75C6.25 8.65054 6.28951 8.55516 6.35983 8.48483C6.43016 8.41451 6.52554 8.375 6.625 8.375H8.87499C8.97445 8.375 9.06983 8.41451 9.14016 8.48483C9.21049 8.55516 9.24999 8.65054 9.24999 8.75V10.25ZM13 19.25C13 19.3495 12.9605 19.4448 12.8902 19.5152C12.8198 19.5855 12.7244 19.625 12.625 19.625H10.375C10.2755 19.625 10.1802 19.5855 10.1098 19.5152C10.0395 19.4448 9.99999 19.3495 9.99999 19.25V14.75C9.99999 14.6505 10.0395 14.5552 10.1098 14.4848C10.1802 14.4145 10.2755 14.375 10.375 14.375H12.625C12.7244 14.375 12.8198 14.4145 12.8902 14.4848C12.9605 14.5552 13 14.6505 13 14.75V19.25ZM13 13.25C13 13.3495 12.9605 13.4448 12.8902 13.5152C12.8198 13.5855 12.7244 13.625 12.625 13.625H10.375C10.2755 13.625 10.1802 13.5855 10.1098 13.5152C10.0395 13.4448 9.99999 13.3495 9.99999 13.25V11.75C9.99999 11.6505 10.0395 11.5552 10.1098 11.4848C10.1802 11.4145 10.2755 11.375 10.375 11.375H12.625C12.7244 11.375 12.8198 11.4145 12.8902 11.4848C12.9605 11.5552 13 11.6505 13 11.75V13.25ZM13 10.25C13 10.3495 12.9605 10.4448 12.8902 10.5152C12.8198 10.5855 12.7244 10.625 12.625 10.625H10.375C10.2755 10.625 10.1802 10.5855 10.1098 10.5152C10.0395 10.4448 9.99999 10.3495 9.99999 10.25V8.75C9.99999 8.65054 10.0395 8.55516 10.1098 8.48483C10.1802 8.41451 10.2755 8.375 10.375 8.375H12.625C12.7244 8.375 12.8198 8.41451 12.8902 8.48483C12.9605 8.55516 13 8.65054 13 8.75V10.25ZM2.5 2.375C2.5 2.27554 2.53951 2.18016 2.60983 2.10984C2.68016 2.03951 2.77554 2 2.875 2H12.625C12.7149 1.99884 12.8022 2.03001 12.871 2.08783C12.9398 2.14565 12.9856 2.22627 13 2.315C13.0039 2.33481 13.0039 2.35519 13 2.375V5C13 5.09946 12.9605 5.19484 12.8902 5.26517C12.8198 5.33549 12.7244 5.375 12.625 5.375H2.875C2.77554 5.375 2.68016 5.33549 2.60983 5.26517C2.53951 5.19484 2.5 5.09946 2.5 5V2.375ZM2.5 8.75C2.5 8.65054 2.53951 8.55516 2.60983 8.48483C2.68016 8.41451 2.77554 8.375 2.875 8.375H5.125C5.22445 8.375 5.31984 8.41451 5.39016 8.48483C5.46049 8.55516 5.5 8.65054 5.5 8.75V10.25C5.5 10.3495 5.46049 10.4448 5.39016 10.5152C5.31984 10.5855 5.22445 10.625 5.125 10.625H2.875C2.77554 10.625 2.68016 10.5855 2.60983 10.5152C2.53951 10.4448 2.5 10.3495 2.5 10.25V8.75ZM2.5 11.75C2.5 11.6505 2.53951 11.5552 2.60983 11.4848C2.68016 11.4145 2.77554 11.375 2.875 11.375H5.125C5.22445 11.375 5.31984 11.4145 5.39016 11.4848C5.46049 11.5552 5.5 11.6505 5.5 11.75V13.25C5.5 13.3495 5.46049 13.4448 5.39016 13.5152C5.31984 13.5855 5.22445 13.625 5.125 13.625H2.875C2.77554 13.625 2.68016 13.5855 2.60983 13.5152C2.53951 13.4448 2.5 13.3495 2.5 13.25V11.75ZM2.5 14.75C2.5 14.6505 2.53951 14.5552 2.60983 14.4848C2.68016 14.4145 2.77554 14.375 2.875 14.375H5.125C5.22445 14.375 5.31984 14.4145 5.39016 14.4848C5.46049 14.5552 5.5 14.6505 5.5 14.75V16.25C5.5 16.3495 5.46049 16.4448 5.39016 16.5152C5.31984 16.5855 5.22445 16.625 5.125 16.625H2.875C2.77554 16.625 2.68016 16.5855 2.60983 16.5152C2.53951 16.4448 2.5 16.3495 2.5 16.25V14.75ZM2.5 17.75C2.5 17.6505 2.53951 17.5552 2.60983 17.4848C2.68016 17.4145 2.77554 17.375 2.875 17.375H5.125C5.22445 17.375 5.31984 17.4145 5.39016 17.4848C5.46049 17.5552 5.5 17.6505 5.5 17.75V19.25C5.5 19.3495 5.46049 19.4448 5.39016 19.5152C5.31984 19.5855 5.22445 19.625 5.125 19.625H2.875C2.77554 19.625 2.68016 19.5855 2.60983 19.5152C2.53951 19.4448 2.5 19.3495 2.5 19.25V17.75Z" fill="#2D3748"></path>
  <path d="M16 13.2501H19V18.1251H16V13.2501Z" fill="#2D3748"></path>
  <path d="M17.845 21.2712L18.8725 18.8749H16.1275L17.155 21.2712C17.1838 21.3388 17.2319 21.3965 17.2932 21.4371C17.3546 21.4776 17.4265 21.4992 17.5 21.4992C17.5735 21.4992 17.6454 21.4776 17.7068 21.4371C17.7681 21.3965 17.8162 21.3388 17.845 21.2712Z" fill="#2D3748"></path>
  <path d="M19 3.49994H19.375V8.37494H20.125V3.12494C20.125 3.02548 20.0855 2.9301 20.0152 2.85977C19.9448 2.78945 19.8495 2.74994 19.75 2.74994H19V1.99994C19 1.90048 18.9605 1.8051 18.8902 1.73477C18.8198 1.66445 18.7245 1.62494 18.625 1.62494V0.874939C18.625 0.775483 18.5855 0.6801 18.5152 0.609774C18.4448 0.539448 18.3495 0.499939 18.25 0.499939H16.75C16.6505 0.499939 16.5552 0.539448 16.4848 0.609774C16.4145 0.6801 16.375 0.775483 16.375 0.874939V1.62494C16.2755 1.62494 16.1802 1.66445 16.1098 1.73477C16.0395 1.8051 16 1.90048 16 1.99994V12.4999H19V3.49994Z" fill="#2D3748"></path>
</svg>
